<svg xmlns="http://www.w3.org/2000/svg" width="53" height="53" viewBox="0 0 53 53">
  <g id="Group_686" data-name="Group 686" transform="translate(-1814 -917)" opacity="0.9">
    <path id="Path_2304" data-name="Path 2304" d="M26.5,0A26.5,26.5,0,1,1,0,26.5,26.5,26.5,0,0,1,26.5,0Z" transform="translate(1814 917)" fill="#3ea238"/>
    <path id="Icon_awesome-whatsapp" data-name="Icon awesome-whatsapp" d="M26.363,6.756A15.37,15.37,0,0,0,2.18,25.3L0,33.257l8.146-2.139a15.318,15.318,0,0,0,7.343,1.869H15.5A15.513,15.513,0,0,0,31.007,17.622,15.426,15.426,0,0,0,26.363,6.756ZM15.5,30.4A12.748,12.748,0,0,1,8.991,28.62l-.464-.277L3.7,29.61,4.983,24.9l-.3-.484a12.8,12.8,0,1,1,23.733-6.79A12.914,12.914,0,0,1,15.5,30.4Zm7-9.565c-.381-.194-2.27-1.121-2.623-1.246s-.609-.194-.865.194-.99,1.246-1.218,1.509-.45.291-.831.1a10.451,10.451,0,0,1-5.226-4.568c-.395-.678.395-.63,1.128-2.1a.712.712,0,0,0-.035-.671c-.1-.194-.865-2.083-1.184-2.852-.311-.747-.63-.644-.865-.658s-.478-.014-.734-.014a1.422,1.422,0,0,0-1.024.478,4.314,4.314,0,0,0-1.343,3.2,7.521,7.521,0,0,0,1.564,3.973c.194.256,2.706,4.132,6.561,5.8,2.436,1.052,3.391,1.142,4.61.962a3.932,3.932,0,0,0,2.589-1.827,3.211,3.211,0,0,0,.221-1.827C23.138,21.117,22.882,21.021,22.5,20.834Z" transform="translate(1825 925.75)" fill="#fff"/>
  </g>
</svg>
